<svg width="109" height="111" viewBox="0 0 109 111" fill="none" xmlns="http://www.w3.org/2000/svg">
<path d="M105.305 51.6596L105.305 60.9449L88.3153 62.7147M40.0811 106.919L64.3136 106.919M40.0811 106.919L25.134 106.919M40.0811 106.919L40.0811 81.3274M25.134 106.919L18.5663 106.919M25.134 106.919L16.528 81.3274M16.528 81.3274L4.07204 81.3274L4.07204 67.7391L13.5839 67.7391M16.528 81.3274L23.0957 81.3274M23.0957 67.7391L23.0957 81.3274M23.0957 67.7391L40.0811 67.7391M23.0957 67.7391L13.5839 67.7391M23.0957 81.3274L40.0811 81.3274M40.0811 67.7391L40.0811 81.3274M40.0811 67.7391L88.3153 62.7147M13.5839 67.7391L10.1868 55.5096L30.7958 55.5096M45.29 55.5096L53.443 55.5096M88.3153 62.7147L88.3153 50.0743M105.305 59.4518L105.305 50.1664L88.3153 48.3967M40.0811 4.19258L64.3136 4.19258M40.0811 4.19258L25.134 4.19258M40.0811 4.19258L40.0811 29.7839M25.134 4.19258L18.5663 4.19258M25.134 4.19258L16.528 29.7839M16.528 29.7839L4.07204 29.7839L4.07204 43.3723L13.5839 43.3723M16.528 29.7839L23.0957 29.7839M23.0957 43.3723L23.0957 29.7839M23.0957 43.3723L40.0811 43.3723M23.0957 43.3723L13.5839 43.3723M23.0957 29.7839L40.0811 29.7839M40.0811 43.3723L40.0811 29.7839M40.0811 43.3723L88.3153 48.3967M13.5839 43.3723L10.1868 55.6018L30.7958 55.6018M45.29 55.6018L53.443 55.6018M88.3153 48.3967L88.3153 61.0371" stroke="white" stroke-width="5" stroke-linecap="round" stroke-linejoin="round"/>
</svg>
